<?xml version="1.0" encoding="utf-8"?>
<!-- Generator: Adobe Illustrator 27.8.0, SVG Export Plug-In . SVG Version: 6.00 Build 0)  -->
<svg version="1.1" id="Layer_1" xmlns="http://www.w3.org/2000/svg" xmlns:xlink="http://www.w3.org/1999/xlink" x="0px" y="0px"
	 viewBox="0 0 200 204" style="enable-background:new 0 0 200 204;" xml:space="preserve">
<style type="text/css">
	.st0{fill:#AAAAAA;}
</style>
<path class="st0" d="M6.5,133.5c1-3.1,1.7-6,3.1-8.4c6.6-11.2,16.1-18.6,29.3-18.9c14.1-0.3,28,9.9,31.6,23.3c1.3,4.6,3.6,7,8,7.2
	c1-2.3,2-4.5,3.7-8.2c2,3.2,3.1,5.1,4.4,6.9c2.1,3,3.9,6.3,6.5,8.7c6.1,5.5,12,4.3,17.3-2.9c1.4-1.9,2.2-4.1,3.5-5.9
	c1.4-1.8,3.1-3.3,4.7-4.9c1.3,1.9,2.6,3.8,4.1,6.1c3.8-0.3,5.5-2.7,7.1-7.2c3.7-10.6,11-18.3,22.4-21.1c18.6-4.6,35.6,4.5,40.3,22.8
	c5.6,21.6-9,40.3-30,41.3c-12.9,0.6-22.1-5.3-29.1-15.5c-1.4-2-2.7-4.1-4.2-6.3c-1.9,0.9-3.6,1.8-5.7,2.8c1.1,2.7,2.4,5,3,7.5
	c0.5,2.3,0.1,4.8,0.1,6.4c5,7.4,9.9,14.4,14.5,21.6c3.7,5.8,2.3,11.1-2.6,16.1c-2.5,0.3-4.9,0.3-7.7,0c-1.7-1.6-3.1-2.7-4.3-4.1
	c-7.2-8.5-14.4-17-21.6-25.5c-3.6-4.3-5-4.5-8.8-0.3c-6.2,6.8-12.1,13.8-18,20.8c-2.6,3.1-5.2,6.3-7.7,9.4c-2.4,0-4.7,0-7.7-0.3
	c-6.8-7.1-7.2-9.6-2.1-17.9c4.2-6.8,9-13.2,13.8-20c-3.7-4.6,1.3-8.7,2.6-13.4c-1.9-1.2-3.7-2.3-5.1-3.1c-3.7,4.7-6.7,9.4-10.6,13.3
	c-11.4,11.6-32.2,11.1-44.1,0c-5.6-5.2-7.8-12-10.8-18.5C6.5,141.3,6.5,137.6,6.5,133.5 M159.3,141.9c1.5-0.2,3.4-0.1,4.4-0.9
	c0.7-0.6,0.7-3,0.1-3.8c-0.7-0.8-3.5-1.1-3.7-0.7C159.2,137.9,159.1,139.7,159.3,141.9 M41.9,137.1c-1.6,0-3.2-0.1-4.8-0.1
	c0,1.4-0.3,2.8,0.1,4c0.2,0.6,2.4,1.4,2.5,1.2C40.8,140.8,41.5,139.2,41.9,137.1z"/>
<path class="st0" d="M156,1c2.3,7.7,4.1,15.3,6,23c0.8,3.1,1.6,6.3,2.4,9.4c-7.6,1.4-8,1.2-9.5-6.2c-1.9-0.1-3.8-0.2-5.9-0.4
	c-1.2-4.1,1-5.8,4.8-6.5c-0.8-3.8-1.6-7.3-2.6-11.8c-2.1,9-3.9,17-5.8,25.2c-2.6,0-4.8,0-7.6,0c2.9-10.8,5.6-21.4,8.6-32.4
	C149.5,1,152.6,1,156,1z"/>
<path class="st0" d="M43.1,1c0.4,10.8,0.4,21.6,0.4,32.7c-2.7,0-5,0-8,0c0-10.6,0-21.2,0-32.2C37.9,1,40.2,1,43.1,1z"/>
<path class="st0" d="M73.1,1c0.4,10.8,0.4,21.6,0.4,32.7c-2.7,0-5,0-8,0c0-10.6,0-21.2,0-32.2C67.9,1,70.2,1,73.1,1z"/>
<path class="st0" d="M51.1,1c8.2,3.7,8.3,9,6,13.8c-2.4,5-7.1,5.1-12.2,5.2c-0.1-1.8-0.3-3.4-0.4-5c0.3,0.2,0.7,0.4,1,0.6
	c1.7-1.9,3.3-3.9,5-5.8c-1.6-1.3-3.1-2.6-4.7-3.8c-0.4,0.2-0.7,0.5-1.1,0.7c-0.1-1.6-0.2-3.2-0.2-5.2C46.5,1,48.6,1,51.1,1z"/>
<path class="st0" d="M130.5,8c-4-0.3-8-0.8-12-1c-2.1-0.1-4.2,0-6.7,0c-0.1-2-0.2-3.5-0.3-5.6C117.9,1,124.2,1,131,1
	c0.4,2.2,0.2,4.4-0.2,6.8C130.5,8,130.5,8,130.5,8z"/>
<path class="st0" d="M102,1c0.4,2.2,0.2,4.4-0.2,6.8C101.5,8,101.5,8,101.5,8c-4-0.3-8-0.8-12-1c-2.1-0.1-4.2,0-6.7,0
	c-0.1-2-0.2-3.5-0.3-5.6C88.9,1,95.2,1,102,1z"/>
<path class="st0" d="M122.9,85.9c4.8-0.6,5.8,1.6,5.7,5.6c-0.3,5.8,0.4,11.8-4.9,14.1c0.3,3.6,1.2,6.7,0.4,9.3
	c-0.5,1.6-3.3,3.5-5.2,3.7c-4.5,0.4-7-2.6-7.5-5.7c-1.5,1.7-3.3,3.9-5.1,6.1c-2.3-2.2-4.7-4.3-6.3-5.8c-1.5,1.4-3.4,4.3-6,5.5
	c-0.9,0.4-3.7-3.3-4.8-4.5c-1.9,1.4-4.1,4.2-6.6,4.5c-2.1,0.3-5.6-1.9-6.6-3.9c-1.1-2.1,0.1-5.4,0.4-9.2c-5.2-2.9-5.3-9.4-4.6-15.9
	c0.1-1.3,2.1-3.3,3.4-3.5C82,85.3,87,82,90.5,76.1c2-3.4,4.2-6.7,6.5-9.9c2.4-3.3,4.7-3,6.9,0.4c2.5,3.9,4.6,8,7.8,11.3
	C114.7,81.1,118.8,83.3,122.9,85.9 M96.5,90.4c4.3-4.5,7.6,2.3,12.6,1c-2.1-4.6-3.8-8.9-6.1-12.9c-0.5-0.9-4-1.2-4.9-0.4
	c-3.8,3.6-5.1,8.3-5.7,14C94.1,91.5,95,91.2,96.5,90.4z"/>
<path class="st0" d="M145.4,104c-1.5-0.4-2.6-0.6-3.7-1.1c-10-3.9-9.1-1.5-9.1-13c0-2,1.6-4.6,3.2-5.9c4.7-3.9,6.4-8.6,5.4-14.5
	c-0.1-0.9,0-2.6,0-2.6c3.2,0,6.4-0.2,9.6,0.2c1,0.1,2.2,1.7,2.5,2.9c2.4,7.9,0.3,15.3-2.9,22.4c-1.3,2.8-1.5,4.9-0.5,7.7
	C151.4,104,150.1,105,145.4,104z"/>
<path class="st0" d="M46.5,78.9c0.5-4.1-0.3-9,1.7-11.1c1.9-1.9,6.8-0.9,10.9-1.3c0.1,1,0.6,2.4,0.2,3.5c-1.8,5,0.3,9,3.7,11.9
	c4.8,4.1,6.5,8.8,4.5,14.8c-0.2,0.8-0.1,1.6-0.2,2.8c-3.9,1.5-7.8,3.2-11.8,4.6c-1.3,0.4-3.5,0.7-4,0.1c-0.8-1.2-1.3-3.4-0.7-4.5
	c1.6-3.1,0.4-5.3-0.9-8.2C48.2,87.7,47.6,83.4,46.5,78.9z"/>
<path class="st0" d="M146.8,36c4.7,0.3,9,0.5,13.2,1.1c0.9,0.1,2.5,2.1,2.2,2.6C159,47.9,155.5,55.9,152,64c-0.5,0-1,0.1-1.5,0.1
	c-3.8-8.7-7.6-17.4-11.5-26.6C142,36.9,144.2,36.5,146.8,36z"/>
<path class="st0" d="M54.4,54.8c-1.5,3.3-3,6.2-5.2,10.5c-4.2-9.9-7.9-18.6-12.1-28.5c9.1,0,16.6,0,24.4,0
	C59,43.2,56.8,48.8,54.4,54.8z"/>
<path class="st0" d="M119.8,40.3c0.5,2.2,0.3,4.4,0.8,6.3c0.3,1.4,1.4,2.7,1.7,3.3c-0.6,2.2-1.9,4.5-1.6,6.5
	c0.5,3.8-1.1,3.8-4.1,3.1c0-3.2,0-6.3,0-9.5c-0.2-0.1-0.5-0.1-0.7-0.2c-1.3,3.3-2.7,6.6-4,9.9c-0.5,0.2-0.9,0.4-1.4,0.6
	c-1.5-3.4-3.1-6.9-5-11.2c0,3.9,0,7,0,10.1c-0.4,0.3-0.9,0.6-1.3,1c-1.1-1-3.1-2-3.1-3.1c0-5.6,0.4-11.2,0.7-16.7
	c5.6-0.9,5.6-0.9,9.2,13c0.9-3.1,2-6.1,2.4-9.1C113.8,40.4,115.9,39.5,119.8,40.3z"/>
<path class="st0" d="M134.7,56.2c2.3-4.7-1.4-5-4.8-6c3.8-3.1,7.8-6.2-0.4-8.2c0,4.8,0.1,9.7-0.1,14.5c0,1.2-1.1,2.3-1.7,3.4
	c-0.7-1.2-2-2.3-2.1-3.5c-0.3-4.4-0.1-8.9-0.1-13.4c-0.1-4.3,2.8-3.9,5.5-3.3c5,1,9.9,2.3,6.3,9.3c-0.3,0.5,1.4,1.8,1.4,2.7
	c0,2.1,0.3,5-0.9,6.1c-1.6,1.5-4.4,1.6-6.7,2.3c-0.2-0.7-0.4-1.5-0.6-2.2C131.7,57.5,133,57,134.7,56.2z"/>
<path class="st0" d="M69.7,58.9c0.3-0.9,0.6-1.7,1-1.7c2.6-0.2,4.6-1.3,3.5-4c-0.6-1.3-3-1.8-5.7-3.2c0,3.3,0.3,5.1-0.1,6.8
	c-0.2,1.1-1.3,2.1-2,3.1c-0.6-1.1-1.7-2.2-1.8-3.3c-0.2-4.5-0.2-9,0-13.4c0.1-1.1,1.3-2,2-3.1c0.6,1,1.6,1.8,1.8,2.9
	c0.3,1.9,0.1,4,0.1,6c6.4-2.7,6.4-2.7,1.4-8.9c1.9,0.5,4.2,0.4,5.4,1.6c1.3,1.3,1.5,3.6,2,5.6c0.2,1-0.2,2-0.2,3.1
	c0.1,2.3,1.3,5.1,0.4,6.8C76,59.7,73,61,69.7,58.9z"/>
<path class="st0" d="M130.5,8c-2.8,4.8-5.7,9.6-8.2,14.6c-2.3,4.6-5.8,5.2-11,4c3.5-5.8,6.5-11.8,10.5-17c1.2-1.6,5.1-1.1,8.2-1.5
	C130.5,8,130.5,8,130.5,8z"/>
<path class="st0" d="M101.5,8c-2.8,4.8-5.7,9.6-8.2,14.6c-2.3,4.6-5.8,5.2-11,4c3.5-5.8,6.5-11.8,10.5-17C94.1,8,98,8.5,101.1,8
	C101.5,8,101.5,8,101.5,8z"/>
<path class="st0" d="M110.9,28c6.9-0.1,13.4-0.1,20.2-0.1c0,2.2,0,3.9,0,5.9c-7.1,0-14,0-21.8,0C109.7,31.6,110.1,29.9,110.9,28z"/>
<path class="st0" d="M98.3,34c-6,0-11.4,0-17.5,0c-0.1-2-0.2-3.7-0.3-5.8c7.3,0,14.2,0,21.4,0C102.5,31.1,104.1,34.3,98.3,34z"/>
<path class="st0" d="M96.5,48.2c-0.8,3.8-1.4,7.2-2.4,10.5c-0.2,0.7-1.8,0.9-2.6,1.3c0-6.8,0-13.2,0-19.9
	C95.7,40.8,96.8,43.7,96.5,48.2z"/>
<path class="st0" d="M88.1,59.4c-4.5-0.3-6.1-2.9-5.6-7c0.5-4.5-2.3-10.5,6.1-12.4C86.2,46.6,85.3,52.9,88.1,59.4z"/>
</svg>
